<svg height="800" width="800" xmlns="http://www.w3.org/2000/svg" viewBox="0 0 512.003 512.003" xml:space="preserve"><path style="fill:#8cc63f" d="M426.377 87.457v-1.415c0-41.399-33.561-74.961-74.961-74.961-41.399 0-74.961 33.561-74.961 74.961v79.584c0 11.005-8.92 19.925-19.925 19.925s-19.925-8.92-19.925-19.925V86.042c0-41.399-33.561-74.961-74.961-74.961-41.399 0-74.961 33.561-74.961 74.961v1.415H85.27c-41.399 0-74.961 33.561-74.961 74.961 0 41.399 33.561 74.961 74.961 74.961h79.584c11.005 0 19.925 8.92 19.925 19.925s-8.92 19.925-19.925 19.925H85.27c-41.399 0-74.961 33.561-74.961 74.961 0 41.399 33.561 74.961 74.961 74.961h1.415v1.415c0 41.399 33.561 74.961 74.961 74.961 41.399 0 74.961-33.561 74.961-74.961V348.98c0-11.005 8.92-19.925 19.925-19.925s19.925 8.92 19.925 19.925v79.578c-.003 41.402 33.559 74.965 74.961 74.965 41.399 0 74.961-33.561 74.961-74.961v-1.415h1.415c41.399 0 74.961-33.561 74.961-74.961 0-41.402-33.564-74.963-74.965-74.961h-79.578c-11.005 0-19.925-8.92-19.925-19.925s8.92-19.925 19.925-19.925h79.584c41.399 0 74.961-33.561 74.961-74.961 0-41.399-33.561-74.961-74.961-74.961h-1.416v.004z"/><path style="fill:#7eaf31" d="M134.446 58.857c-13.56 13.56-21.94 32.302-21.949 52.997v1.42h-1.42c-41.392 0-74.957 33.565-74.957 74.957 0 14.087 3.881 27.259 10.638 38.516a75.157 75.157 0 0 1-14.492-11.32c-13.57-13.57-21.958-32.302-21.958-53.008 0-41.392 33.565-74.957 74.957-74.957h1.42v-1.42c.009-20.696 8.389-39.437 21.949-52.997 13.57-13.57 32.32-21.958 53.008-21.958 27.324 0 51.228 14.612 64.328 36.45-11.256-6.757-24.429-10.638-38.516-10.638-20.688 0-39.438 8.388-53.008 21.958zm244.168-.001c13.561 13.561 21.94 32.302 21.949 52.997v1.42h1.42c41.392 0 74.957 33.565 74.957 74.957 0 14.087-3.881 27.259-10.638 38.516a75.157 75.157 0 0 0 14.492-11.32c13.57-13.57 21.958-32.302 21.958-53.008 0-41.392-33.565-74.957-74.957-74.957h-1.42v-1.42c-.009-20.696-8.389-39.437-21.949-52.997-13.569-13.57-32.32-21.958-53.006-21.958-27.324 0-51.228 14.612-64.328 36.45 11.256-6.757 24.429-10.638 38.516-10.638 20.686 0 39.437 8.388 53.006 21.958zm.001 396.894c13.561-13.561 21.94-32.302 21.949-52.997v-1.42h1.42c41.392 0 74.957-33.565 74.957-74.957 0-14.087-3.881-27.259-10.638-38.516a75.157 75.157 0 0 1 14.492 11.32c13.57 13.57 21.958 32.302 21.958 53.008 0 41.392-33.565 74.957-74.957 74.957h-1.42v1.42c-.009 20.696-8.389 39.437-21.949 52.997-13.57 13.57-32.32 21.958-53.008 21.958-27.324 0-51.228-14.612-64.328-36.45 11.256 6.757 24.429 10.638 38.516 10.638 20.688 0 39.438-8.389 53.008-21.958zm-244.168.001c-13.561-13.56-21.94-32.302-21.949-52.997v-1.42h-1.42c-41.392 0-74.957-33.565-74.957-74.957 0-14.087 3.881-27.259 10.638-38.516a75.157 75.157 0 0 0-14.492 11.32c-13.57 13.57-21.958 32.302-21.958 53.008 0 41.392 33.565 74.957 74.957 74.957h1.42v1.42c.009 20.696 8.389 39.437 21.949 52.997 13.57 13.57 32.32 21.958 53.008 21.958 27.324 0 51.228-14.612 64.328-36.45-11.256 6.757-24.429 10.638-38.516 10.638-20.687.001-39.437-8.389-53.008-21.958z"/><path d="M427.257 266.147h-79.579c-5.596 0-10.147-4.551-10.147-10.147s4.551-10.147 10.147-10.147h79.584c46.725 0 84.739-38.014 84.739-84.739 0-44.03-33.754-80.324-76.744-84.364-1.821-19.616-10.341-37.817-24.445-51.923-3.819-3.819-10.01-3.82-13.827-.001a9.776 9.776 0 0 0-.001 13.828c12.308 12.311 19.088 28.679 19.088 46.086v1.415c0 5.4 4.377 9.778 9.778 9.778h1.415c35.942 0 65.183 29.241 65.183 65.183s-29.241 65.183-65.183 65.183H347.68c-16.379 0-29.702 13.324-29.702 29.702 0 16.379 13.325 29.702 29.702 29.702h79.579c17.412-.001 33.782 6.778 46.094 19.09 12.312 12.311 19.094 28.682 19.094 46.093 0 35.942-29.241 65.183-65.183 65.183h-1.415c-5.401 0-9.778 4.378-9.778 9.778v1.415c0 35.942-29.241 65.183-65.183 65.183-17.411 0-33.782-6.781-46.093-19.093-12.311-12.312-19.092-28.682-19.09-46.094V347.68c0-16.379-13.325-29.702-29.702-29.702S226.3 331.302 226.3 347.68v79.584c0 5.4 4.377 9.778 9.778 9.778s9.778-4.378 9.778-9.778V347.68c0-5.595 4.551-10.147 10.147-10.147s10.147 4.551 10.147 10.147v79.579c-.001 22.635 8.813 43.917 24.817 59.922 16.004 16.006 37.286 24.821 59.921 24.821 44.029 0 80.324-33.757 84.366-76.748 42.991-4.04 76.748-40.336 76.748-84.366 0-22.635-8.816-43.916-24.821-59.921-16.006-16.005-37.289-24.821-59.924-24.82z"/><path d="M228.746 461.069a9.778 9.778 0 0 0-13.576 2.63c-12.158 17.999-32.367 28.744-54.056 28.744-35.942 0-65.183-29.241-65.183-65.183v-1.415c0-5.4-4.377-9.778-9.778-9.778h-1.415c-35.942.001-65.183-29.241-65.183-65.183s29.241-65.183 65.183-65.183h79.584c16.379 0 29.701-13.324 29.701-29.702s-13.324-29.702-29.701-29.702H84.739c-35.942 0-65.183-29.241-65.183-65.183s29.241-65.183 65.183-65.183h1.415c5.401 0 9.778-4.378 9.778-9.778v-1.415c0-35.942 29.241-65.183 65.183-65.183s65.183 29.241 65.183 65.183v79.584c0 16.379 13.325 29.702 29.702 29.702 16.377 0 29.702-13.324 29.702-29.702V84.739c0-35.942 29.241-65.183 65.183-65.183 4.427 0 8.851.446 13.148 1.325 5.29 1.083 10.457-2.33 11.539-7.619 1.082-5.29-2.328-10.457-7.62-11.539A85.25 85.25 0 0 0 350.887 0c-46.725 0-84.739 38.014-84.739 84.739v79.584c0 5.596-4.551 10.147-10.147 10.147s-10.147-4.551-10.147-10.147V84.739C245.853 38.014 207.84 0 161.115 0 117.086 0 80.79 33.758 76.749 76.749 33.759 80.789.001 117.083.001 161.113c0 46.725 38.014 84.739 84.739 84.739h79.584c5.594 0 10.145 4.551 10.145 10.147s-4.551 10.147-10.145 10.147H84.739C38.014 266.147 0 304.16 0 350.886c0 44.03 33.758 80.324 76.748 84.364 4.042 42.991 40.336 76.748 84.366 76.748 28.194 0 54.459-13.964 70.261-37.354 3.023-4.474 1.847-10.552-2.629-13.575z"/><path d="m268.801 283.39 104.924 105.39a9.75 9.75 0 0 0 6.929 2.879 9.747 9.747 0 0 0 6.899-2.849c3.826-3.809 3.839-10.001.03-13.827L282.66 269.593c-3.812-3.828-10.002-3.841-13.828-.03-3.826 3.81-3.84 10.001-.031 13.827zm-35.788-39.988a9.742 9.742 0 0 0 6.899-2.85c3.828-3.811 3.839-10.002.029-13.827L138.272 124.633c-3.812-3.826-10.003-3.839-13.827-.029-3.828 3.811-3.839 10.001-.029 13.827l101.669 102.091a9.745 9.745 0 0 0 6.928 2.88zm110.852-87.993c-3.828 3.811-3.839 10.001-.029 13.827a9.748 9.748 0 0 0 6.928 2.879 9.742 9.742 0 0 0 6.899-2.85l30.41-30.284c3.828-3.811 3.839-10.001.029-13.827-3.812-3.826-10.003-3.839-13.827-.029l-30.41 30.284zm-13.602 27.343c-3.812-3.826-10.003-3.839-13.827-.029L215.697 283.045c-3.828 3.811-3.839 10.001-.029 13.827a9.748 9.748 0 0 0 6.928 2.879 9.742 9.742 0 0 0 6.899-2.85l100.739-100.322c3.827-3.81 3.84-10.001.029-13.827zM190.898 307.77l-66.969 66.663c-3.828 3.809-3.841 10.001-.031 13.827a9.751 9.751 0 0 0 6.929 2.88 9.743 9.743 0 0 0 6.898-2.849l66.969-66.663c3.828-3.809 3.841-10.001.031-13.827-3.812-3.828-10.003-3.841-13.827-.031z"/></svg>